<svg xmlns="http://www.w3.org/2000/svg" viewBox="0 0 680 120" width="680" height="120">
  <defs>
    <linearGradient id="fadeGrad" x1="0" y1="0" x2="680" y2="0" gradientUnits="userSpaceOnUse">
      <stop offset="0"   stop-color="white" stop-opacity="0"/>
      <stop offset="60"  stop-color="white" stop-opacity="1"/>
      <stop offset="620" stop-color="white" stop-opacity="1"/>
      <stop offset="680" stop-color="white" stop-opacity="0"/>
    </linearGradient>
    <mask id="fadeMask" maskUnits="userSpaceOnUse">
      <rect x="0" y="0" width="680" height="120" fill="url(#fadeGrad)"/>
    </mask>
    <clipPath id="clip">
      <rect width="680" height="120"/>
    </clipPath>
  </defs>

  <rect width="680" height="120" fill="#0d1117"/>

  <g clip-path="url(#clip)">
    <g mask="url(#fadeMask)">

      <!-- ROW 1: Languages + Frameworks — scrolls LEFT -->
      <!-- Total width W1 = 1088px -->
      <g>
        <animateTransform attributeName="transform" type="translate"
                          from="0,0" to="-1088,0"
                          dur="22s" repeatCount="indefinite"/>

        <!-- Original set -->
        <rect x="0"    y="17" width="60"  height="26" rx="13" fill="#161b22" stroke="#30363d" stroke-width="1"/><text x="30"   y="34" text-anchor="middle" font-family="'Courier New',monospace" font-size="11" fill="#8b949e">Java</text>
        <rect x="70"   y="17" width="104" height="26" rx="13" fill="#161b22" stroke="#30363d" stroke-width="1"/><text x="122"  y="34" text-anchor="middle" font-family="'Courier New',monospace" font-size="11" fill="#8b949e">JavaScript</text>
        <rect x="184"  y="17" width="104" height="26" rx="13" fill="#161b22" stroke="#30363d" stroke-width="1"/><text x="236"  y="34" text-anchor="middle" font-family="'Courier New',monospace" font-size="11" fill="#8b949e">TypeScript</text>
        <rect x="298"  y="17" width="64"  height="26" rx="13" fill="#161b22" stroke="#30363d" stroke-width="1"/><text x="330"  y="34" text-anchor="middle" font-family="'Courier New',monospace" font-size="11" fill="#8b949e">HTML5</text>
        <rect x="372"  y="17" width="60"  height="26" rx="13" fill="#161b22" stroke="#30363d" stroke-width="1"/><text x="402"  y="34" text-anchor="middle" font-family="'Courier New',monospace" font-size="11" fill="#8b949e">CSS3</text>
        <rect x="442"  y="17" width="64"  height="26" rx="13" fill="#161b22" stroke="#30363d" stroke-width="1"/><text x="474"  y="34" text-anchor="middle" font-family="'Courier New',monospace" font-size="11" fill="#8b949e">React</text>
        <rect x="516"  y="17" width="120" height="26" rx="13" fill="#161b22" stroke="#30363d" stroke-width="1"/><text x="576"  y="34" text-anchor="middle" font-family="'Courier New',monospace" font-size="11" fill="#8b949e">React Native</text>
        <rect x="646"  y="17" width="80"  height="26" rx="13" fill="#161b22" stroke="#30363d" stroke-width="1"/><text x="686"  y="34" text-anchor="middle" font-family="'Courier New',monospace" font-size="11" fill="#8b949e">Next.js</text>
        <rect x="736"  y="17" width="80"  height="26" rx="13" fill="#161b22" stroke="#30363d" stroke-width="1"/><text x="776"  y="34" text-anchor="middle" font-family="'Courier New',monospace" font-size="11" fill="#8b949e">Node.js</text>
        <rect x="826"  y="17" width="80"  height="26" rx="13" fill="#161b22" stroke="#30363d" stroke-width="1"/><text x="866"  y="34" text-anchor="middle" font-family="'Courier New',monospace" font-size="11" fill="#8b949e">Express</text>
        <rect x="916"  y="17" width="64"  height="26" rx="13" fill="#161b22" stroke="#30363d" stroke-width="1"/><text x="948"  y="34" text-anchor="middle" font-family="'Courier New',monospace" font-size="11" fill="#8b949e">Redux</text>
        <rect x="990"  y="17" width="88"  height="26" rx="13" fill="#161b22" stroke="#30363d" stroke-width="1"/><text x="1034" y="34" text-anchor="middle" font-family="'Courier New',monospace" font-size="11" fill="#8b949e">Tailwind CSS</text>

        <!-- Duplicate set (offset +1088) -->
        <rect x="1088" y="17" width="60"  height="26" rx="13" fill="#161b22" stroke="#30363d" stroke-width="1"/><text x="1118" y="34" text-anchor="middle" font-family="'Courier New',monospace" font-size="11" fill="#8b949e">Java</text>
        <rect x="1158" y="17" width="104" height="26" rx="13" fill="#161b22" stroke="#30363d" stroke-width="1"/><text x="1210" y="34" text-anchor="middle" font-family="'Courier New',monospace" font-size="11" fill="#8b949e">JavaScript</text>
        <rect x="1272" y="17" width="104" height="26" rx="13" fill="#161b22" stroke="#30363d" stroke-width="1"/><text x="1324" y="34" text-anchor="middle" font-family="'Courier New',monospace" font-size="11" fill="#8b949e">TypeScript</text>
        <rect x="1386" y="17" width="64"  height="26" rx="13" fill="#161b22" stroke="#30363d" stroke-width="1"/><text x="1418" y="34" text-anchor="middle" font-family="'Courier New',monospace" font-size="11" fill="#8b949e">HTML5</text>
        <rect x="1460" y="17" width="60"  height="26" rx="13" fill="#161b22" stroke="#30363d" stroke-width="1"/><text x="1490" y="34" text-anchor="middle" font-family="'Courier New',monospace" font-size="11" fill="#8b949e">CSS3</text>
        <rect x="1530" y="17" width="64"  height="26" rx="13" fill="#161b22" stroke="#30363d" stroke-width="1"/><text x="1562" y="34" text-anchor="middle" font-family="'Courier New',monospace" font-size="11" fill="#8b949e">React</text>
        <rect x="1604" y="17" width="120" height="26" rx="13" fill="#161b22" stroke="#30363d" stroke-width="1"/><text x="1664" y="34" text-anchor="middle" font-family="'Courier New',monospace" font-size="11" fill="#8b949e">React Native</text>
        <rect x="1734" y="17" width="80"  height="26" rx="13" fill="#161b22" stroke="#30363d" stroke-width="1"/><text x="1774" y="34" text-anchor="middle" font-family="'Courier New',monospace" font-size="11" fill="#8b949e">Next.js</text>
        <rect x="1824" y="17" width="80"  height="26" rx="13" fill="#161b22" stroke="#30363d" stroke-width="1"/><text x="1864" y="34" text-anchor="middle" font-family="'Courier New',monospace" font-size="11" fill="#8b949e">Node.js</text>
        <rect x="1914" y="17" width="80"  height="26" rx="13" fill="#161b22" stroke="#30363d" stroke-width="1"/><text x="1954" y="34" text-anchor="middle" font-family="'Courier New',monospace" font-size="11" fill="#8b949e">Express</text>
        <rect x="2004" y="17" width="64"  height="26" rx="13" fill="#161b22" stroke="#30363d" stroke-width="1"/><text x="2036" y="34" text-anchor="middle" font-family="'Courier New',monospace" font-size="11" fill="#8b949e">Redux</text>
        <rect x="2078" y="17" width="88"  height="26" rx="13" fill="#161b22" stroke="#30363d" stroke-width="1"/><text x="2122" y="34" text-anchor="middle" font-family="'Courier New',monospace" font-size="11" fill="#8b949e">Tailwind CSS</text>
      </g>

      <!-- ROW 2: Databases + Tools — scrolls RIGHT -->
      <!-- Total width W2 = 1114px -->
      <g>
        <animateTransform attributeName="transform" type="translate"
                          from="-1114,0" to="0,0"
                          dur="22s" repeatCount="indefinite"/>

        <!-- Original set -->
        <rect x="0"    y="77" width="80"  height="26" rx="13" fill="#161b22" stroke="#30363d" stroke-width="1"/><text x="40"   y="94" text-anchor="middle" font-family="'Courier New',monospace" font-size="11" fill="#8b949e">MongoDB</text>
        <rect x="90"   y="77" width="64"  height="26" rx="13" fill="#161b22" stroke="#30363d" stroke-width="1"/><text x="122"  y="94" text-anchor="middle" font-family="'Courier New',monospace" font-size="11" fill="#8b949e">Redis</text>
        <rect x="164"  y="77" width="88"  height="26" rx="13" fill="#161b22" stroke="#30363d" stroke-width="1"/><text x="208"  y="94" text-anchor="middle" font-family="'Courier New',monospace" font-size="11" fill="#8b949e">Supabase</text>
        <rect x="262"  y="77" width="72"  height="26" rx="13" fill="#161b22" stroke="#30363d" stroke-width="1"/><text x="298"  y="94" text-anchor="middle" font-family="'Courier New',monospace" font-size="11" fill="#8b949e">Docker</text>
        <rect x="344"  y="77" width="56"  height="26" rx="13" fill="#161b22" stroke="#30363d" stroke-width="1"/><text x="372"  y="94" text-anchor="middle" font-family="'Courier New',monospace" font-size="11" fill="#8b949e">AWS</text>
        <rect x="410"  y="77" width="72"  height="26" rx="13" fill="#161b22" stroke="#30363d" stroke-width="1"/><text x="446"  y="94" text-anchor="middle" font-family="'Courier New',monospace" font-size="11" fill="#8b949e">Vercel</text>
        <rect x="492"  y="77" width="80"  height="26" rx="13" fill="#161b22" stroke="#30363d" stroke-width="1"/><text x="532"  y="94" text-anchor="middle" font-family="'Courier New',monospace" font-size="11" fill="#8b949e">Netlify</text>
        <rect x="582"  y="77" width="56"  height="26" rx="13" fill="#161b22" stroke="#30363d" stroke-width="1"/><text x="610"  y="94" text-anchor="middle" font-family="'Courier New',monospace" font-size="11" fill="#8b949e">Git</text>
        <rect x="648"  y="77" width="72"  height="26" rx="13" fill="#161b22" stroke="#30363d" stroke-width="1"/><text x="684"  y="94" text-anchor="middle" font-family="'Courier New',monospace" font-size="11" fill="#8b949e">GitHub</text>
        <rect x="730"  y="77" width="64"  height="26" rx="13" fill="#161b22" stroke="#30363d" stroke-width="1"/><text x="762"  y="94" text-anchor="middle" font-family="'Courier New',monospace" font-size="11" fill="#8b949e">Figma</text>
        <rect x="804"  y="77" width="80"  height="26" rx="13" fill="#161b22" stroke="#30363d" stroke-width="1"/><text x="844"  y="94" text-anchor="middle" font-family="'Courier New',monospace" font-size="11" fill="#8b949e">Postman</text>
        <rect x="894"  y="77" width="96"  height="26" rx="13" fill="#161b22" stroke="#30363d" stroke-width="1"/><text x="942"  y="94" text-anchor="middle" font-family="'Courier New',monospace" font-size="11" fill="#8b949e">WebSocket</text>
        <rect x="1000" y="77" width="104" height="26" rx="13" fill="#161b22" stroke="#30363d" stroke-width="1"/><text x="1052" y="94" text-anchor="middle" font-family="'Courier New',monospace" font-size="11" fill="#8b949e">Cloudinary</text>

        <!-- Duplicate set (offset +1114) -->
        <rect x="1114" y="77" width="80"  height="26" rx="13" fill="#161b22" stroke="#30363d" stroke-width="1"/><text x="1154" y="94" text-anchor="middle" font-family="'Courier New',monospace" font-size="11" fill="#8b949e">MongoDB</text>
        <rect x="1204" y="77" width="64"  height="26" rx="13" fill="#161b22" stroke="#30363d" stroke-width="1"/><text x="1236" y="94" text-anchor="middle" font-family="'Courier New',monospace" font-size="11" fill="#8b949e">Redis</text>
        <rect x="1278" y="77" width="88"  height="26" rx="13" fill="#161b22" stroke="#30363d" stroke-width="1"/><text x="1322" y="94" text-anchor="middle" font-family="'Courier New',monospace" font-size="11" fill="#8b949e">Supabase</text>
        <rect x="1376" y="77" width="72"  height="26" rx="13" fill="#161b22" stroke="#30363d" stroke-width="1"/><text x="1412" y="94" text-anchor="middle" font-family="'Courier New',monospace" font-size="11" fill="#8b949e">Docker</text>
        <rect x="1458" y="77" width="56"  height="26" rx="13" fill="#161b22" stroke="#30363d" stroke-width="1"/><text x="1486" y="94" text-anchor="middle" font-family="'Courier New',monospace" font-size="11" fill="#8b949e">AWS</text>
        <rect x="1524" y="77" width="72"  height="26" rx="13" fill="#161b22" stroke="#30363d" stroke-width="1"/><text x="1560" y="94" text-anchor="middle" font-family="'Courier New',monospace" font-size="11" fill="#8b949e">Vercel</text>
        <rect x="1606" y="77" width="80"  height="26" rx="13" fill="#161b22" stroke="#30363d" stroke-width="1"/><text x="1646" y="94" text-anchor="middle" font-family="'Courier New',monospace" font-size="11" fill="#8b949e">Netlify</text>
        <rect x="1696" y="77" width="56"  height="26" rx="13" fill="#161b22" stroke="#30363d" stroke-width="1"/><text x="1724" y="94" text-anchor="middle" font-family="'Courier New',monospace" font-size="11" fill="#8b949e">Git</text>
        <rect x="1762" y="77" width="72"  height="26" rx="13" fill="#161b22" stroke="#30363d" stroke-width="1"/><text x="1798" y="94" text-anchor="middle" font-family="'Courier New',monospace" font-size="11" fill="#8b949e">GitHub</text>
        <rect x="1844" y="77" width="64"  height="26" rx="13" fill="#161b22" stroke="#30363d" stroke-width="1"/><text x="1876" y="94" text-anchor="middle" font-family="'Courier New',monospace" font-size="11" fill="#8b949e">Figma</text>
        <rect x="1918" y="77" width="80"  height="26" rx="13" fill="#161b22" stroke="#30363d" stroke-width="1"/><text x="1958" y="94" text-anchor="middle" font-family="'Courier New',monospace" font-size="11" fill="#8b949e">Postman</text>
        <rect x="2008" y="77" width="96"  height="26" rx="13" fill="#161b22" stroke="#30363d" stroke-width="1"/><text x="2056" y="94" text-anchor="middle" font-family="'Courier New',monospace" font-size="11" fill="#8b949e">WebSocket</text>
        <rect x="2114" y="77" width="104" height="26" rx="13" fill="#161b22" stroke="#30363d" stroke-width="1"/><text x="2166" y="94" text-anchor="middle" font-family="'Courier New',monospace" font-size="11" fill="#8b949e">Cloudinary</text>
      </g>

    </g>
  </g>
</svg>
